PathFileType	4	(X/Y/Z)	Patient4_TMGait_0pt3_03_right_10.trc.trc
DataRate	CameraRate	NumFrames	NumMarkers	Units	OrigDataRate	OrigDataStartFrame	OrigNumFrames
53.435114503817	53.435114503817	5	33	mm	53.435114503817	18	       141
Frame#	Time	Sacral			L.Shoulder			Chest			R.Shoulder			Neck			R.ASIS			L.ASIS			R.Thigh.Superior			R.Thigh.Lateral			R.Thigh.Inferior			R.Patella			L.Thigh.Superior			L.Thigh.Lateral			L.Thigh.Inferior			L.Patella			L.Shank.Superior			L.Shank.Lateral			L.Shank.Inferior			R.Shank.Superior			R.Shank.Lateral			R.Shank.Inferior			R.Heel			R.Midfoot.Superior			R.Midfoot.Lateral			R.Toe			L.Heel			L.Midfoot.Lateral			L.Midfoot.Superior			L.Toe			L.Elbow			L.Wrist			R.Elbow			R.Wrist			
		X1	Y1	Z1	X2	Y2	Z2	X3	Y3	Z3	X4	Y4	Z4	X5	Y5	Z5	X6	Y6	Z6	X7	Y7	Z7	X8	Y8	Z8	X9	Y9	Z9	X10	Y10	Z10	X11	Y11	Z11	X12	Y12	Z12	X13	Y13	Z13	X14	Y14	Z14	X15	Y15	Z15	X16	Y16	Z16	X17	Y17	Z17	X18	Y18	Z18	X19	Y19	Z19	X20	Y20	Z20	X21	Y21	Z21	X22	Y22	Z22	X23	Y23	Z23	X24	Y24	Z24	X25	Y25	Z25	X26	Y26	Z26	X27	Y27	Z27	X28	Y28	Z28	X29	Y29	Z29	X30	Y30	Z30	X31	Y31	Z31	X32	Y32	Z32	X33	Y33	Z33	

18	19.268142857143	765.731071650824	1017.074732407696	390.073321644875	1024.924590438998	1427.030754065635	252.616567338518	1073.330237662704	1358.125563730811	435.983738606003	952.067716536121	1443.957074205841	578.901071613219	964.161555628920	1494.448679692455	400.782545552904	959.313157811408	945.857109757551	561.481904105343	1009.336700857759	954.390644577428	290.459638081691	1027.648759189300	767.109362359123	540.830562987613	971.136504547988	652.072908888346	610.102051559645	1060.899515154717	605.421303962423	537.323306198623	1087.121124928468	521.401111783205	560.750420619473	1024.616405366324	735.055585631796	328.431291979168	936.863409845982	624.327647607639	256.600106284369	1001.134008620284	542.925981139064	335.753512299391	993.296939189528	473.251998527506	344.506946215875	956.124167749226	404.783499973631	332.791904474007	858.612346079404	300.871630052552	275.174169168241	885.964155003343	186.112381221388	351.563253895036	1061.843518606227	433.401080589329	572.474633737894	993.375868347837	328.823092679874	637.951898628196	1055.316473989598	233.509750100228	592.513378783309	944.822945994478	50.928670986391	568.463209396522	1109.354640148131	118.498050535199	609.038306117401	1029.483748953861	44.519767312566	641.308078684897	1233.809806769917	79.841062739397	635.179497589216	740.461148489779	39.666336122234	388.368505270940	816.249409207386	35.564393951592	309.641104494738	900.201652463215	95.069489759906	339.593115687809	1028.503607271879	40.397856477356	312.457524875275	1134.729612911187	1111.736149622544	112.681031746994	1381.215621971853	1029.970555178374	140.790432165266	764.386310348139	1147.797288626099	665.228120492199	717.269993890455	892.501660941047	690.111447068275	
19	19.286857142857	765.784429568230	1016.246419878617	392.852058240726	1024.294553162919	1426.628419808094	256.210018788165	1072.173263242653	1358.057724719836	439.728507116594	950.421658213628	1444.022660098836	582.172181353163	962.994239660099	1494.040801314812	404.039210168198	958.920074189569	944.864658846848	564.650391222108	1009.359227064591	954.289915186472	293.869736416762	1025.622740054003	764.418430825717	544.602296413205	967.099263773437	649.775855522285	613.050212301242	1056.672021304456	602.820764399726	540.379606355072	1081.939080515530	520.537834486188	562.578393516976	1022.803186332667	734.022707102685	331.007877002268	934.108354945322	624.328001889776	258.029916305754	997.221920094042	541.954882514221	336.831932724645	988.485395290097	472.464591560532	345.295195906173	951.369212534090	404.334113410828	333.432650176397	853.521916868202	300.858210770267	275.580574653266	880.599190274140	185.880727524893	351.737064079320	1059.921553921828	432.338233314570	574.769784399856	995.367357601957	325.481834669706	641.043270353849	1060.148509742395	232.075721338040	595.216532477843	954.972433675796	46.901048859795	572.199836044127	1118.296046011800	117.701395139690	611.472571617016	1040.320850425018	41.946836602816	644.180798532238	1243.927313735470	81.541915220591	636.512223081360	734.796989313899	39.595089982675	388.340070930658	810.557393680331	35.502823817924	309.612800590125	894.516096037969	95.012509127107	339.610444080074	1022.815019036197	40.375738278977	312.470303268229	1140.157766976862	1114.182105515835	116.902040863172	1389.880718383540	1044.078711267792	146.296283681269	760.159232456150	1149.684184515103	665.528256896690	711.188076164582	894.325021220047	688.545988566506	
20	19.305571428571	766.018276882773	1015.001964415805	396.177526387886	1023.272322121615	1426.095945182993	260.114165633233	1070.998388788409	1357.798450292426	443.660929318856	948.943102212051	1443.677114402157	585.919619100453	961.695334095597	1493.388113824982	407.730691228634	959.037366663517	943.569118293123	567.924231446364	1009.550728460513	953.984075023773	297.302902697606	1024.482189256794	761.631168250304	548.525552827711	963.830513463039	647.169599656574	615.883400016256	1053.502847152209	600.225702017097	543.496836990300	1077.493812232511	519.180641417164	564.408781995420	1021.448857888113	732.908108984324	333.629583966307	931.766654323382	624.178791194239	259.693267056888	993.861980209504	540.884075940421	338.022112849605	984.276099445718	471.520744760366	346.228623271817	947.089429442218	403.707404749981	334.241531579599	848.733366681460	300.839124817419	276.122434157006	875.386513723226	185.568645996357	351.971152068334	1057.965538401362	430.731863846803	576.958026458861	996.187133471108	322.396126965290	643.618488378310	1062.848299094015	230.466181988864	597.467295584728	961.273681265582	44.259100436216	574.991736565634	1123.801796218754	116.589509784230	613.493014139614	1046.869125807918	40.149610515486	646.493488837508	1249.899911107428	81.703069809908	637.968361284602	729.136789111845	39.521852167899	388.315471405819	804.873317602450	35.446639252267	309.591346036520	888.838938640264	94.954457388376	339.641010036603	1017.131643338524	40.343892643897	312.475969505563	1144.897233989353	1116.475371000530	121.292535150046	1397.146500357896	1057.388059491583	151.645736355810	757.441049945466	1150.263974740686	666.506780579578	707.129166392974	894.723659240699	687.609587492523	
21	19.324285714286	766.457120321450	1013.462501217985	400.011510869422	1021.942655831505	1425.523565103420	264.351127681590	1069.850736319309	1357.426361688131	447.817522882692	947.637128243497	1442.998304512114	590.147424706761	960.305109562318	1492.576970719395	411.877936046953	959.652051637592	942.092108204281	571.329975664862	1009.958334455394	953.542959216348	300.789408521731	1024.234288016027	758.892506020974	552.552640871316	961.393555192212	644.394485398906	618.554288664832	1051.446400525152	597.768632151863	546.623910583448	1073.920211805227	517.453914932663	566.212362346480	1020.513168982689	731.741843135575	336.307324692704	929.743095766048	623.947743507540	261.602398791312	990.928863067104	539.759963869509	339.339143975408	980.539054692606	470.483500644345	347.322083794167	943.173373152218	402.974059053480	335.221143632259	844.166192708406	300.858303611634	276.801435276683	870.280377009079	185.219603387845	352.266584690367	1056.138476578582	428.677228341942	578.983708150096	996.039453926577	319.517413006626	645.661241836783	1063.692364970378	228.604426204106	599.205357455813	964.017212666095	42.684124679563	576.827489678736	1126.221152511711	115.073724952053	615.018965127129	1049.503033461779	38.911248113668	648.233186988497	1252.210474632761	80.342652986043	639.445164567609	723.482101624932	39.458263391994	388.291093759682	799.201104307782	35.403171057203	309.579158891873	883.173517191878	94.905397021237	339.680503889228	1011.456205551091	40.302756018224	312.472756353561	1148.840445773207	1118.617186794004	125.815748424275	1403.007808335241	1069.813916134385	156.810387664910	756.120626908021	1149.658076220609	668.263380871294	704.980766063456	893.849802627308	687.485272330544	
22	19.343000000000	767.114054895894	1011.757826645248	404.302948578380	1020.409519792650	1424.993031723715	268.934406061447	1068.778881812155	1357.015295969460	452.230318296258	946.511033068209	1442.075578824180	594.843852595935	958.877161235392	1491.694695449518	416.485034150436	960.728932058602	940.558667521835	574.902802946320	1010.604335502993	953.040451930385	304.376532825913	1024.828479394557	756.325686272503	556.621658452891	959.835748751686	641.603044568036	621.051962402191	1050.487205295662	595.547498901588	549.698788972635	1071.304154354212	515.483845140887	567.957727585260	1019.930842971345	730.556327530684	339.058373560081	927.927862236808	623.708255353369	263.760710245076	988.280369733246	538.634705200010	340.795183018911	977.127060177562	469.420909177106	348.582368915814	939.497860607331	402.212132143005	336.365818173744	839.731018686077	300.962659077646	277.615309752774	865.233611867264	184.881519731205	352.621451094485	1054.594132543122	426.304697319571	580.804307048991	995.211354747609	316.826605506001	647.211261414148	1063.060887727847	226.485390976944	600.410759627925	963.709662559786	41.886381864034	577.788999942009	1126.066443753495	113.163430240448	616.004769753378	1048.834404570790	38.066769867761	649.430839045355	1251.516208228895	77.646798946941	640.807211438322	717.833737247515	39.422904563450	388.262540496055	793.544229152788	35.382744644687	309.578275170448	877.524522944808	94.876604987387	339.724104269840	1005.791032999800	40.252751931922	312.459874321295	1151.923605238555	1120.603498535824	130.432763214577	1407.502534162848	1081.275641217854	161.772615127861	756.046890681488	1148.046771417314	670.866539853530	704.619753861940	891.907266515616	688.339076268900	
